<?xml version="1.0" encoding="utf-8"?>
<!-- Generator: Adobe Illustrator 27.8.1, SVG Export Plug-In . SVG Version: 6.00 Build 0)  -->
<svg version="1.1" id="Layer_1" xmlns="http://www.w3.org/2000/svg" xmlns:xlink="http://www.w3.org/1999/xlink" x="0px" y="0px"
	 viewBox="0 0 104.2 64" style="enable-background:new 0 0 104.2 64;" xml:space="preserve">
<style type="text/css">
	.st0{fill:#F77143;}
</style>
<g>
	<path class="st0" d="M57.8,10V0.2c0-0.2-0.2-0.3-0.3-0.2L0.4,24.1c-0.5,0.2-0.5,0.8,0,1l45.7,19.3c0.3,0.1,0.6,0.1,0.9,0l10.7-4.5
		c0.5-0.2,0.5-0.8,0-1L24.4,24.8c-0.2-0.1-0.2-0.3,0-0.4l33-14C57.6,10.4,57.8,10.2,57.8,10z"/>
	<path class="st0" d="M46.5,54.1v9.7c0,0.2,0.2,0.3,0.3,0.2l57.1-24.1c0.5-0.2,0.5-0.8,0-1L58.2,19.6c-0.3-0.1-0.6-0.1-0.9,0
		l-10.7,4.5c-0.5,0.2-0.5,0.8,0,1l33.3,14.1c0.2,0.1,0.2,0.3,0,0.4l-33,14C46.6,53.6,46.5,53.8,46.5,54.1z"/>
</g>
</svg>
